<svg xmlns="http://www.w3.org/2000/svg" xmlns:xlink="http://www.w3.org/1999/xlink" width="658.171" height="470.201" viewBox="0 0 658.171 470.201">
  <defs>
    <linearGradient id="linear-gradient" x1="0.5" x2="0.507" y2="0.833" gradientUnits="objectBoundingBox">
      <stop offset="0" stop-color="#f4f1ea"/>
      <stop offset="1" stop-color="#fff"/>
    </linearGradient>
  </defs>
  <g id="Group_49194" data-name="Group 49194" transform="translate(-745 -249.795)">
    <path id="Path_80968" data-name="Path 80968" d="M359.935,129.435c-193.441,0-446.561,44.611-309.942,54.615,144.327,10.567,104.84,34.919,181.459,21.593,108.818-18.923,182.68-13.063,145.2,8.433-59.87,34.333,454.215-13.027,240.321-66.562C418.738,97.9,359.935,129.435,359.935,129.435Z" transform="translate(733.809 494.269)" fill="url(#linear-gradient)"/>
    <rect id="Rectangle_12672" data-name="Rectangle 12672" width="21.214" height="3.843" transform="translate(905.52 256.731)" fill="#fff"/>
    <rect id="Rectangle_12673" data-name="Rectangle 12673" width="21.214" height="0.723" transform="translate(905.52 254.938)" fill="#fff"/>
    <path id="Path_81752" data-name="Path 81752" d="M1609.853,643.783l35.973-80.493h113.188v-1.405h-113.77l-36.385,80.9Z" transform="translate(-502.401 -229.512)" fill="#e8e1d0"/>
    <path id="Path_81753" data-name="Path 81753" d="M570.9,742.174l.994-.994-65.884-37.007H406.364v1.405h99.06Z" transform="translate(452.906 -320.285)" fill="#e8e1d0"/>
    <path id="Path_81754" data-name="Path 81754" d="M1055.573,571.2l.993-.994L1037.4,499.3H974.905v1.405h61.913Z" transform="translate(14.179 -162.108)" fill="#e8e1d0"/>
    <rect id="Rectangle_12679" data-name="Rectangle 12679" width="9.993" height="30.35" transform="translate(1195.209 296.044)" fill="#e8e1d0"/>
    <path id="Path_81756" data-name="Path 81756" d="M1854.542,315.818h-77.507a4.388,4.388,0,0,1-4.388-4.389V259.338a4.388,4.388,0,0,1,4.388-4.389h77.507a4.388,4.388,0,0,1,4.388,4.389v52.092a4.388,4.388,0,0,1-4.388,4.389" transform="translate(-615.583 -5.154)" fill="#e8e1d0"/>
    <rect id="Rectangle_12680" data-name="Rectangle 12680" width="79.526" height="47.857" transform="translate(1160.443 253.268)" fill="#fff"/>
    <rect id="Rectangle_12681" data-name="Rectangle 12681" width="44.954" height="2.291" transform="translate(1177.728 325.249)" fill="#e8e1d0"/>
    <rect id="Rectangle_12682" data-name="Rectangle 12682" width="25.56" height="29.548" transform="translate(1210.188 267.792)" fill="#e8e1d0"/>
    <rect id="Rectangle_12683" data-name="Rectangle 12683" width="26.335" height="3.683" transform="translate(1179.904 267.792)" fill="#e8e1d0"/>
    <rect id="Rectangle_12684" data-name="Rectangle 12684" width="26.335" height="3.683" transform="translate(1179.904 275.355)" fill="#e8e1d0"/>
    <rect id="Rectangle_12685" data-name="Rectangle 12685" width="26.335" height="15.194" transform="translate(1179.904 282.146)" fill="#e8e1d0"/>
    <rect id="Rectangle_12686" data-name="Rectangle 12686" width="11.174" height="30.388" transform="translate(1165.009 266.952)" fill="#e8e1d0"/>
    <rect id="Rectangle_12687" data-name="Rectangle 12687" width="70.74" height="7.588" transform="translate(1165.269 256.954)" fill="#e8e1d0"/>
    <path id="Path_81757" data-name="Path 81757" d="M1002.353,306.507h35.409a4.2,4.2,0,0,0,4.2-4.2V248.776a4.2,4.2,0,0,0-4.2-4.2h-35.409a4.2,4.2,0,0,0-4.2,4.2v53.532a4.2,4.2,0,0,0,4.2,4.2" transform="translate(-0.125 24.086)" fill="#e8e1d0"/>
    <rect id="Rectangle_12688" data-name="Rectangle 12688" width="38.965" height="50.824" transform="translate(1000.45 271.526)" fill="#fff"/>
    <rect id="Rectangle_12689" data-name="Rectangle 12689" width="33.912" height="6.765" transform="translate(1003.068 275.181)" fill="#e8e1d0"/>
    <rect id="Rectangle_12690" data-name="Rectangle 12690" width="13.958" height="33.163" transform="translate(1023.022 284.569)" fill="#e8e1d0"/>
    <rect id="Rectangle_12691" data-name="Rectangle 12691" width="17.361" height="3.841" transform="translate(1003.068 284.57)" fill="#e8e1d0"/>
    <rect id="Rectangle_12692" data-name="Rectangle 12692" width="17.361" height="3.841" transform="translate(1003.068 291.209)" fill="#e8e1d0"/>
    <rect id="Rectangle_12693" data-name="Rectangle 12693" width="17.361" height="3.841" transform="translate(1003.068 297.849)" fill="#e8e1d0"/>
    <rect id="Rectangle_12694" data-name="Rectangle 12694" width="17.361" height="13.244" transform="translate(1003.068 304.488)" fill="#e8e1d0"/>
    <path id="Path_81758" data-name="Path 81758" d="M465.022,546.7h68.29V503.4a3.077,3.077,0,0,0-3.077-3.077H468.1a3.077,3.077,0,0,0-3.077,3.077Z" transform="translate(410.03 -171.281)" fill="#e8e1d0"/>
    <rect id="Rectangle_12695" data-name="Rectangle 12695" width="64.478" height="41.434" transform="translate(876.957 331.515)" fill="#fff"/>
    <path id="Path_81759" data-name="Path 81759" d="M452.78,672.682h74.877v.719a2.688,2.688,0,0,1-2.688,2.688h-69.5a2.688,2.688,0,0,1-2.687-2.688Z" transform="translate(418.978 -297.265)" fill="#e8e1d0"/>
    <rect id="Rectangle_12696" data-name="Rectangle 12696" width="59.019" height="5.761" transform="translate(879.654 334.526)" fill="#e8e1d0"/>
    <rect id="Rectangle_12697" data-name="Rectangle 12697" width="20.235" height="26.396" transform="translate(918.438 343.542)" fill="#e8e1d0"/>
    <rect id="Rectangle_12698" data-name="Rectangle 12698" width="20.235" height="26.396" transform="translate(895.609 343.542)" fill="#e8e1d0"/>
    <rect id="Rectangle_12699" data-name="Rectangle 12699" width="12.339" height="3.772" transform="translate(879.654 343.542)" fill="#e8e1d0"/>
    <rect id="Rectangle_12700" data-name="Rectangle 12700" width="12.339" height="3.771" transform="translate(879.654 349.373)" fill="#e8e1d0"/>
    <rect id="Rectangle_12701" data-name="Rectangle 12701" width="12.339" height="14.734" transform="translate(879.654 355.203)" fill="#e8e1d0"/>
    <path id="Path_81772" data-name="Path 81772" d="M1784.614,1680.941q.033.076-.016.113c-.192.144-.161.082.016-.113" transform="translate(-624.223 -1076.378)" fill="#e55353"/>
    <path id="Path_81783" data-name="Path 81783" d="M1819.414,1691.5l-.484-.284a4.789,4.789,0,0,1,.484.284" transform="translate(-649.414 -1083.89)" fill="#525252"/>
    <path id="Path_81832" data-name="Path 81832" d="M278.629,95.332,271.6,68.752,264.087,42.53s-21.1-.358-22.289,7.152,2.145,10.966,1.788,15.137,1.669,14.661,4.648,18,6.3,2.5,11.85-.715l1.262,16.449Z" transform="translate(920.034 329.83)" fill="#f8d8cd"/>
    <path id="Path_81833" data-name="Path 81833" d="M293.842,273.752H405.828a1.252,1.252,0,0,0,1.252-1.251v-1.4a1.252,1.252,0,0,0-1.252-1.252H293.842a1.252,1.252,0,0,0-1.252,1.252v1.4a1.252,1.252,0,0,0,1.252,1.251" transform="translate(767.244 210.888)" fill="#cbc1a9"/>
    <path id="Path_81834" data-name="Path 81834" d="M451.306,152.033H383.427a2.546,2.546,0,0,0-2.464,3.187l13.272,51.08A2.546,2.546,0,0,0,396.7,208.2h67.88a2.546,2.546,0,0,0,2.464-3.186l-13.273-51.08a2.546,2.546,0,0,0-2.464-1.906" transform="translate(665.104 272.534)" fill="#cbc1a9"/>
    <path id="Path_81835" data-name="Path 81835" d="M453.667,158.617H386.6l13.486,49.624h67.066Z" transform="translate(662.349 269.089)" fill="#fff"/>
    <path id="Path_81836" data-name="Path 81836" d="M444.352,165.754H418.786a1.48,1.48,0,0,0-1.435,1.844l1.556,6.138a1.48,1.48,0,0,0,1.435,1.117h25.566a1.48,1.48,0,0,0,1.434-1.844l-1.555-6.138a1.48,1.48,0,0,0-1.435-1.117" transform="translate(667.475 265.354)" fill="#e8e1d0"/>
    <path id="Path_81837" data-name="Path 81837" d="M438.352,190.5H412.786a1.48,1.48,0,0,0-1.435,1.844l1.556,6.138a1.48,1.48,0,0,0,1.435,1.117h25.566a1.48,1.48,0,0,0,1.434-1.844l-1.555-6.138a1.48,1.48,0,0,0-1.435-1.117" transform="translate(676.336 252.404)" fill="#e8e1d0"/>
    <path id="Path_81838" data-name="Path 81838" d="M424.887,215.254H408.465a1.48,1.48,0,0,0-1.435,1.844l.755,2.511a1.48,1.48,0,0,0,1.435,1.117h16.422a1.48,1.48,0,0,0,1.435-1.844l-.755-2.511a1.48,1.48,0,0,0-1.435-1.117" transform="translate(692.662 239.454)" fill="#e8e1d0"/>
    <path id="Path_81839" data-name="Path 81839" d="M513.838,200.045H500.183a1.231,1.231,0,0,0-1.193,1.533l.628,2.088a1.231,1.231,0,0,0,1.193.928h13.654a1.231,1.231,0,0,0,1.193-1.533l-.628-2.088a1.231,1.231,0,0,0-1.193-.928" transform="translate(560.241 247.412)" fill="#e8e1d0"/>
    <path id="Path_81840" data-name="Path 81840" d="M474.166,225.868s-8.42-6.96-10.416-7.544-5.744,2.044-7.788,3.772-4.381,5.963-4.381,5.963.827,2.044,3.31,0l-.971,1.7a3.185,3.185,0,0,0-.169,2.818l.781,1.853a3.188,3.188,0,0,0,.931,1.238l1.525,1.234a1.4,1.4,0,1,0,1.745-2.188l-1.407-1.106-.438-2.044,1.557-1.022s4.624,4.916,7.788,4.965a16.8,16.8,0,0,0,6.717-1.8Z" transform="translate(624.356 237.892)" fill="#f8d8cd"/>
    <path id="Path_81841" data-name="Path 81841" d="M505.772,562.7,488.29,580.817l4.132,7.946,22.885-15.893Z" transform="translate(565.713 57.66)" fill="#f8d8cd"/>
    <path id="Path_81842" data-name="Path 81842" d="M556.723,583.679l-2.472,10.944a27.021,27.021,0,0,1-10.846,3.1c-12.038-14.422-16.091-21.574-16.091-21.574s-5.024-10.608-1.975-15.614c5.313,3.814,16.984,12.034,25.035,15.552-1.366,5.068,3.7,7.5,6.35,7.593" transform="translate(507.102 58.793)" fill="#215274"/>
    <path id="Path_81843" data-name="Path 81843" d="M366.356,562.467l6.516,23.68,9.822-2.225L378.752,557.7Z" transform="translate(756.461 60.276)" fill="#f8d8cd"/>
    <path id="Path_81844" data-name="Path 81844" d="M378.326,591.371s-9.535-2.026-14.422,3.337c-2.265,8.86-8.7,21.336-8.7,21.336l-6.913,6.913h12.833l6.476-4.768,18.475-18.117Z" transform="translate(761.694 42.855)" fill="#215274"/>
    <path id="Path_81845" data-name="Path 81845" d="M358.862,362.367l-66.385,8.525a14.531,14.531,0,0,0-12.026,18.719l24.593,79.235,15.575-3.5-2.258-45.044a51.263,51.263,0,0,0-6.483-22.5l50.458,4.609Z" transform="translate(818.092 162.48)" fill="#2a5c7e"/>
    <path id="Path_81846" data-name="Path 81846" d="M395.168,431.019l-39.81,18.369-10.1,13.105a108.967,108.967,0,0,1-36.717,30.518L287.9,503.568l-8.105-12.4,68.893-74.138Z" transform="translate(785.259 133.877)" fill="#33719b"/>
    <path id="Path_81847" data-name="Path 81847" d="M200.713,552.946H279.8l3.592-87.475a9.753,9.753,0,0,0-2.6-7.251,9.543,9.543,0,0,0-6.981-2.853H240.444c-5.535,0-11,4.207-12.719,9.784Zm77.255-1.907H203.3l26.252-85.326c1.48-4.811,6.164-8.438,10.9-8.438h33.363a7.655,7.655,0,0,1,5.605,2.267,7.865,7.865,0,0,1,2.072,5.852Z" transform="translate(934.729 113.82)" fill="#104938"/>
    <path id="Path_81849" data-name="Path 81849" d="M511.378,465.391h75.144L561.336,288.852a.953.953,0,1,0-1.888.269l24.875,174.363H513.576l24.875-174.363a.954.954,0,1,0-1.888-.269Z" transform="translate(483.49 201.374)" fill="#104938"/>
    <path id="Path_81850" data-name="Path 81850" d="M584.093,464.512a.954.954,0,0,0,.351-1.84l-46.755-18.49a.954.954,0,0,0-.7,1.774l46.755,18.489a.945.945,0,0,0,.35.067" transform="translate(473.044 119.707)" fill="#104938"/>
    <path id="Path_81851" data-name="Path 81851" d="M53.166,465.391h74.045L102.025,288.852a.953.953,0,1,0-1.888.269l24.874,174.363H53.166a.954.954,0,0,0,0,1.907" transform="translate(1161.718 201.374)" fill="#104938"/>
    <path id="Path_81852" data-name="Path 81852" d="M124.926,464.512a.954.954,0,0,0,.351-1.84l-46.755-18.49a.954.954,0,1,0-.7,1.774l46.755,18.489a.945.945,0,0,0,.35.067" transform="translate(1151.126 119.707)" fill="#104938"/>
    <rect id="Rectangle_12704" data-name="Rectangle 12704" width="284.154" height="5.721" transform="translate(999.305 484.64)" fill="#e8e1d0"/>
    <path id="Path_81853" data-name="Path 81853" d="M259.06,147.421l24.077,6.2S316.4,212.9,289.7,264.388s-52.13,10.138-57.215-3.513-.636-37.489-2.861-48.614a111.828,111.828,0,0,0-4.943-17.906l-22.9,15.045h-11.97l-33.135-10.966s-3.464-6.913,1.605-11.2c23.027,1.033,34.152,1.19,34.152,1.19l29.56-32.18,20.024-7.152s9.656-3.571,17.044-1.669" transform="translate(939.603 275.239)" fill="#3498db"/>
    <path id="Path_81854" data-name="Path 81854" d="M185.631,306.533h-21.1a26.963,26.963,0,0,0-25.472,18.123l-5.619,16.191a34.944,34.944,0,0,1-24.59,22.458l-10,2.484a5.442,5.442,0,0,0-3,8.608,20.346,20.346,0,0,0,16.1,7.91h51.094a45.6,45.6,0,0,0,44.118-34.078l5.628-21.554a16.079,16.079,0,0,0-15.557-20.142Z" transform="translate(1055.346 191.694)" fill="#e8e1d0"/>
    <path id="Path_81855" data-name="Path 81855" d="M97.552,552.946h79.086l-27.012-87.795c-1.716-5.578-7.184-9.784-12.719-9.784H103.543a9.543,9.543,0,0,0-6.981,2.853,9.753,9.753,0,0,0-2.6,7.251Zm76.5-1.907H99.383l-3.517-85.646a7.866,7.866,0,0,1,2.072-5.852,7.655,7.655,0,0,1,5.6-2.267h33.364c4.732,0,9.416,3.628,10.9,8.438Z" transform="translate(1092.391 113.82)" fill="#104938"/>
    <path id="Path_81856" data-name="Path 81856" d="M509.926,172.664c-.992-3.816,1.3-6.91,5.114-6.91a9.566,9.566,0,0,1,8.7,6.91c.992,3.816-1.3,6.91-5.114,6.91a9.566,9.566,0,0,1-8.705-6.91" transform="translate(546.838 265.354)" fill="#e8e1d0"/>
    <path id="Path_81857" data-name="Path 81857" d="M238.015,48.319s-4.176-3.695-5.825-6.675,1.689-11.681,9.079-15.137,25.269-1.549,25.269-1.549l6.079,5.721s6.238,20.075-8.439,35.9a45.063,45.063,0,0,0-12.539,2.239s-2.741-2.029-4.649-7.749c1.43-5.839.834-9.772-2.145-10.607s-4.291,2.861-3.1,7.867c-2.861-1.43-4.6-4.529-3.731-10.012" transform="translate(929.384 339.298)"/>
    <path id="Path_81858" data-name="Path 81858" d="M187.612,16.336a1.5,1.5,0,0,1,1.357-1.44c2.545-.257,2.49-4.392,2.513-6.2.031-2.366-.485-4.719-2.637-6.008a1.431,1.431,0,0,1,1.444-2.47c3.449,2.065,4.227,5.875,4,9.617A15.377,15.377,0,0,1,215.866,6.5c1.466,1.081.041,3.565-1.444,2.47a12.715,12.715,0,0,0-16.5.937,15.112,15.112,0,0,1,10.853-1.693c1.791.422,1.033,3.181-.761,2.758-.212-.05-.422-.085-.632-.123,2.287.823,4.447,2.011,6.946,1.349a1.431,1.431,0,0,1,.76,2.758c-3.818,1.011-6.63-1.091-10.21-1.9a9.417,9.417,0,0,0-4.954.213,15.326,15.326,0,0,1,6.033,1.641c4.093,1.991,10.16,7.006,14.545,2.9,1.343-1.257,3.37.761,2.022,2.023-3.285,3.076-7.874,2.676-11.725.928-1.759-.8-3.693-2.065-5.693-3.082a18.848,18.848,0,0,1,2.745,3.839,1.374,1.374,0,0,1-.331,1.757,10.319,10.319,0,0,0,5.207,2.5c1.8.237,1.822,3.1,0,2.861-3.458-.457-6.109-2.217-8.611-4.579-1.405-1.326-2.788-2.827-4.322-4.048a15.546,15.546,0,0,1,1.388,1.365c3.338,3.735,4.509,10.323,9.639,12.143,1.723.611.98,3.376-.76,2.758-4.432-1.572-6.416-5.506-8.564-9.381-2.731-4.928-7.108-8.1-12.882-8.109a1.452,1.452,0,0,1-1-2.447" transform="translate(1001.589 352.082)"/>
    <path id="Path_81872" data-name="Path 81872" d="M585.883,208.251c-3.678,5.507-2.952,7.538-1.177,8.724s3.93,1.079,7.608-4.429,5.712-15.515,5.712-15.515-8.466,5.713-12.144,11.22" transform="translate(437.722 248.989)" fill="#3fd5b7"/>
    <path id="Path_81873" data-name="Path 81873" d="M603,185.521c-.082,9.143,1.828,10.936,4.2,10.957s4.317-1.736,4.4-10.879-4.1-22.231-4.1-22.231-4.418,13.011-4.5,22.154" transform="translate(414.731 266.603)" fill="#3fd5b7"/>
    <path id="Path_81874" data-name="Path 81874" d="M619.948,208.678c3.519,5.611,5.473,5.9,7.041,4.919s2.156-2.869-1.363-8.48-11.379-11.838-11.379-11.838,2.183,9.788,5.7,15.4" transform="translate(392.741 250.952)" fill="#3fd5b7"/>
    <path id="Path_81875" data-name="Path 81875" d="M595.57,207.128a26.808,26.808,0,0,0,6.214,6.188q.075-6.4.149-12.808c.015-1.274,2-1.342,1.985-.061l-.15,12.84a19.155,19.155,0,0,0,6.3-6.86.994.994,0,0,1,1.745.949,21.163,21.163,0,0,1-8.183,8.326,1.063,1.063,0,0,1-.213.089.851.851,0,0,1-1.186.209,29.353,29.353,0,0,1-8.344-7.819c-.748-1.04.94-2.087,1.683-1.054" transform="translate(418.823 247.687)" fill="#fff"/>
    <path id="Path_81876" data-name="Path 81876" d="M590.705,254.169H606.54l3.286-21.693H587.418Z" transform="translate(423.932 230.444)" fill="#cbc1a9"/>
  </g>
</svg>
